<svg width="24" height="24" xmlns="http://www.w3.org/2000/svg">

 <g>
  <title>background</title>
  <rect fill="none" id="canvas_background" height="402" width="582" y="-1" x="-1"/>
 </g>
 <g>
  <title>Layer 1</title>
  <path fill="#ffffff" id="svg_1" d="m21.302,9.025l-5.843,-0.556l-2.598,-5.597c-0.158,-0.339 -0.487,-0.55 -0.861,-0.55s-0.704,0.211 -0.861,0.55l-2.598,5.596l-5.842,0.557c-0.368,0.034 -0.676,0.272 -0.803,0.619c-0.127,0.348 -0.044,0.728 0.216,0.992l4.291,4.354l-1.032,5.548c-0.066,0.354 0.071,0.71 0.357,0.928c0.287,0.219 0.666,0.258 0.99,0.1l5.282,-2.562l5.281,2.577c0.133,0.065 0.276,0.097 0.418,0.097c0.203,0 0.404,-0.066 0.573,-0.195c0.287,-0.218 0.425,-0.574 0.359,-0.929l-1.033,-5.569l4.29,-4.35c0.26,-0.264 0.343,-0.643 0.216,-0.991c-0.127,-0.347 -0.434,-0.585 -0.802,-0.619zm-4.554,5.471c-0.109,0.11 -0.157,0.267 -0.129,0.42l1.078,5.812l-5.489,-2.679c-0.066,-0.032 -0.137,-0.048 -0.208,-0.048c-0.071,0 -0.142,0.016 -0.207,0.048l-5.49,2.663l1.078,-5.792c0.029,-0.152 -0.019,-0.309 -0.128,-0.42l-4.465,-4.53l6.114,-0.582c0.168,-0.016 0.314,-0.12 0.386,-0.273l2.711,-5.847l0.002,0.003l0,0l2.712,5.844c0.071,0.153 0.218,0.257 0.386,0.273l6.114,0.582l-4.465,4.526z"/>
 </g>
</svg>