<svg width="24" height="24" xmlns="http://www.w3.org/2000/svg">

 <g>
  <title>background</title>
  <rect fill="none" id="canvas_background" height="402" width="582" y="-1" x="-1"/>
 </g>
 <g>
  <title>Layer 1</title>
  <path fill="#ffffff" id="svg_1" d="m19.607,18.746c0,0.881 -0.716,1.624 -1.597,1.624l-12.779,0c-0.881,0 -1.597,-0.743 -1.597,-1.624l0,-12.779c0,-0.881 0.716,-1.571 1.597,-1.571l7.454,0l0,-1.064l-7.454,0c-1.468,0 -2.662,1.168 -2.662,2.636l0,12.778c0,1.468 1.194,2.688 2.662,2.688l12.778,0c1.468,0 2.662,-1.221 2.662,-2.688l0,-7.428l-1.065,0l0,7.428l0.001,0z"/>
  <path fill="#ffffff" stroke="null" id="svg_2" d="m20.581468,3.432305c-1.09459,-1.154739 -3.004676,-1.154739 -4.100627,0l-9.724695,10.24634c-0.092577,0.097543 -0.159287,0.220907 -0.1906,0.354311l-1.023795,4.319156c-0.061264,0.259637 0.010891,0.535053 0.1906,0.725836c0.137504,0.14488 0.322659,0.223776 0.511898,0.223776c0.058541,0 0.117083,-0.007172 0.175624,-0.022951l4.100627,-1.080148c0.127974,-0.032993 0.243696,-0.103281 0.336273,-0.200824l9.724695,-10.24634c0.547295,-0.576653 0.849532,-1.344088 0.849532,-2.160295s-0.300876,-1.582208 -0.849532,-2.158861zm-10.606902,13.336165l-2.733752,0.720098l0.683438,-2.880394l8.04469,-8.476218l2.050314,2.160295l-8.04469,8.476218zm9.581745,-10.097157l-0.511898,0.539357l-2.050314,-2.160295l0.511898,-0.539357c0.547295,-0.576653 1.503019,-0.576653 2.050314,0c0.273647,0.288326 0.424766,0.671327 0.424766,1.080148c0,0.408821 -0.151119,0.791821 -0.424766,1.080148z"/>
 </g>
</svg>